Coordinates
version=1
nRows=19
nColumns=36
inDegrees=yes

Units are S.I. units (second, meters, Newtons, ...)
If the header above contains a line with 'inDegrees', this indicates whether rotational values are in degrees (yes) or radians (no).

endheader
time	pelvis_tilt	pelvis_list	pelvis_rotation	pelvis_tx	pelvis_ty	pelvis_tz	hip_flexion_r	hip_adduction_r	hip_rotation_r	knee_angle_r	knee_angle_r_beta	ankle_angle_r	subtalar_angle_r	mtp_angle_r	hip_flexion_l	hip_adduction_l	hip_rotation_l	knee_angle_l	knee_angle_l_beta	ankle_angle_l	subtalar_angle_l	mtp_angle_l	lumbar_extension	lumbar_bending	lumbar_rotation	arm_flex_r	arm_add_r	arm_rot_r	elbow_flex_r	pro_sup_r	arm_flex_l	arm_add_l	arm_rot_l	elbow_flex_l	pro_sup_l
     44.98333330	     -8.36707986	      2.20740273	      0.30105250	      0.92952492	      0.78822615	      0.71568557	     -1.02817553	     -2.22230310	      1.22228089	     31.01208986	      0.54126308	      5.71902702	     -4.84549362	     -7.49999987	     31.14297702	      2.48884112	     -1.14766935	     16.36272459	      0.28558342	      4.67677424	     -0.99948171	     -7.49999987	      9.43280825	     -3.32564637	      4.30878945	      4.12256128	    -12.97387638	      5.51383300	     17.66408239	     97.69674071	      4.15393863	     -8.67651334	      5.91373660	      7.60380515	     95.51440888
     45.00000000	     -8.41310173	      2.60220623	      0.34049777	      0.93150382	      0.79158325	      0.71152480	      0.97535649	     -2.85790518	      1.49715400	     35.80506898	      0.62491634	      1.01506790	     -6.62742462	     -7.49999987	     30.42173663	      3.12601869	     -1.15864740	     17.46030210	      0.30473976	      5.53600177	     -1.53843412	     -7.49999987	      9.86467132	     -3.91546651	      3.83269105	      3.19496257	    -12.31768584	      5.19060745	     16.56462180	     97.66227073	      3.97627565	     -8.90013443	      6.00418680	      7.66376788	     95.44726875
     45.01666670	     -8.27311253	      2.99472817	      0.31464536	      0.93220184	      0.79517337	      0.70731922	      3.12922292	     -3.43970435	      1.81931205	     40.68732174	      0.71012773	     -3.59643136	     -8.01007755	     -7.49999987	     29.26887197	      3.76434929	     -1.22987727	     18.03235615	      0.31472399	      6.49623222	     -1.91573846	     -7.49999987	      9.93741356	     -4.48567194	      3.22427336	      2.34571693	    -11.73331550	      5.02570018	     15.87409264	     97.54741386	      3.83491905	     -9.09272573	      6.12714366	      7.88509025	     95.32269499
     45.03333330	     -8.46381357	      3.19784329	      0.18283110	      0.93202351	      0.79852680	      0.70353299	      5.96399894	     -3.72568026	      2.29265754	     45.44633110	      0.79318811	     -7.68774300	     -9.61908411	     -7.49999987	     28.31944747	      4.20176623	     -1.18507408	     18.22404869	      0.31806965	      7.40519093	     -1.99011835	     -7.49999987	     10.41281462	     -4.58029453	      2.67626703	      1.41300720	    -11.23246572	      4.80486630	     14.75910715	     97.61407309	      3.62947321	     -9.16836880	      6.44481508	      8.00469088	     95.30291009
     45.05000000	     -8.20851801	      3.43306061	     -0.10623936	      0.93133807	      0.80194479	      0.70029377	      8.67187210	     -4.02101829	      2.67897957	     50.02803782	      0.87315398	     -9.86662653	    -10.75626525	     -7.49999987	     26.68812660	      4.61923218	     -1.20402068	     17.83066469	      0.31120381	      7.95403417	     -2.24727589	     -7.49999987	      9.93231541	     -4.74643087	      1.97967838	      0.78359186	    -10.87977628	      4.76351784	     14.42530023	     97.61545563	      3.65395962	     -9.35949033	      6.59095254	      8.29232916	     95.26765992
     45.06666670	     -8.20018837	      3.57717961	     -0.51040674	      0.93079032	      0.80344224	      0.69716659	     11.85673276	     -4.18383831	      3.00596698	     54.28327466	      0.94742187	    -10.54023242	    -12.12428243	     -7.49999987	     25.27529917	      4.89380435	     -1.26766754	     17.23592228	      0.30082359	      8.17140540	     -2.64407666	     -7.49999987	      9.77294153	     -4.66489239	      1.43673102	      0.26673932	    -10.66898459	      4.70990492	     13.93535310	     97.67191632	      3.77177815	     -9.55690694	      6.77187599	      8.70972150	     95.26187389
     45.08333330	     -9.00694904	      3.62771738	     -0.85193009	      0.92967924	      0.80280700	      0.69384093	     16.02454860	     -4.23743057	      3.18837027	     58.27681966	      1.01712238	     -9.68167684	    -13.04373899	     -7.49999987	     24.77544533	      5.09667428	     -1.05792003	     16.68098569	      0.29113812	      7.98074977	     -3.47338311	     -7.49999987	     10.80514385	     -4.45405233	      1.00616599	     -0.33284761	    -10.58535403	      4.55951363	     13.13460202	     97.91961829	      3.57530208	     -9.72688333	      7.24222946	      9.44783241	     95.25793697
     45.10000000	     -9.40008083	      3.64615497	     -1.05990104	      0.92659618	      0.80358700	      0.69066261	     19.67369386	     -4.23051455	      3.34479250	     61.68228589	      1.07655898	     -7.88790954	    -13.66357317	     -7.49999987	     23.80071131	      5.31848946	     -0.79420719	     16.04365853	      0.28001467	      7.66950282	     -4.26530510	     -7.49999987	     11.17295984	     -4.21451564	      0.41022245	     -0.81173950	    -10.55783864	      4.42501686	     12.73680619	     98.05737978	      3.69477606	     -9.93198732	      7.54996741	     10.06332323	     95.17753967
     45.11666670	     -9.90953765	      3.57118559	     -1.06041679	      0.92277510	      0.80502422	      0.68808922	     23.34032733	     -4.05635591	      3.54876976	     64.39875306	      1.12397028	     -5.64814371	    -14.16680848	     -7.49999987	     23.02929640	      5.50424044	     -0.35453410	     15.58967161	      0.27209110	      7.52332635	     -5.13780054	     -7.49999987	     11.63681768	     -3.90452278	     -0.37624822	     -1.30320291	    -10.54878012	      4.24230277	     12.35167572	     98.15100270	      3.82186145	    -10.16119759	      7.88075782	     10.67107176	     95.03793577
     45.13333330	    -10.23313267	      3.41074933	     -1.00628652	      0.91971115	      0.80695348	      0.68651542	     26.51712949	     -3.74152710	      3.67980586	     66.00300948	      1.15196983	     -2.71869606	    -14.46296743	     -7.49999987	     22.08455037	      5.57325121	      0.06345294	     15.22679496	      0.26575771	      7.65765113	     -5.83305151	     -7.49999987	     11.80231141	     -3.55343121	     -1.23502650	     -1.77399049	    -10.56620269	      4.09822776	     12.09374322	     98.21424533	      4.07055105	    -10.41948094	      8.16527843	     11.25712636	     94.91269752
     45.15000000	    -10.50619794	      3.09605109	     -1.00262273	      0.91750445	      0.80808330	      0.68516865	     29.23612836	     -3.26343223	      3.58984270	     66.27097382	      1.15664669	      0.83559388	    -14.47636232	     -7.49999987	     21.15326310	      5.42473819	      0.44176953	     15.02922876	      0.26230953	      8.08305244	     -6.25185991	     -7.49999987	     11.89710039	     -3.02508863	     -2.06788307	     -2.25682443	    -10.69272407	      3.99787927	     11.95988513	     98.20558223	      4.28768265	    -10.60773589	      8.42676339	     11.87941305	     94.76449300
     45.16666670	    -10.93818989	      2.65103668	     -1.06808312	      0.91535126	      0.80889868	      0.68365859	     31.70161562	     -2.64399774	      3.32642737	     65.01329076	      1.13469598	      4.35452525	    -14.36773246	     -7.49999987	     20.42480286	      5.06771128	      0.71727272	     14.83287550	      0.25888252	      8.69114403	     -6.17226957	     -7.49999987	     12.23549953	     -2.34543378	     -2.83231668	     -2.69082948	    -10.82542945	      3.85757708	     11.73728567	     96.87309956	      4.43764189	    -10.74696996	      8.63902587	     12.50890920	     93.23924504
     45.18333330	    -11.46361405	      2.22347765	     -1.07500025	      0.91391363	      0.80924031	      0.68230017	     33.86715076	     -2.14779686	      2.96111441	     62.53339046	      1.09141356	      7.19953044	    -14.16848456	     -7.49999987	     19.80876636	      4.73887355	      1.06769261	     14.60114034	      0.25483797	      9.32659207	     -5.93722320	     -7.49999987	     12.74473477	     -1.68417823	     -3.55738320	     -3.12892444	    -11.16689202	      4.89053788	     11.74612833	     97.69277721	      4.59815070	    -11.12962928	     10.66739759	     13.17352813	     92.99046498
     45.20000000	    -11.78156106	      1.81099642	     -1.10838141	      0.91364884	      0.80938182	      0.68170171	     35.39926527	     -1.70576162	      2.65361419	     59.12544411	      1.03193367	      8.82084005	    -14.06769446	     -7.49999987	     18.90669321	      4.40583567	      1.35253190	     14.25588791	      0.24881218	      9.88719677	     -5.67685569	     -7.49999987	     13.05944122	     -1.05831297	     -4.09371075	     -3.60711507	    -11.43580089	      4.76620774	     11.99414646	     97.49416280	      4.87510138	    -11.34136248	     10.61572668	     13.75749847	     92.78061546
     45.21666670	    -12.04095276	      1.52632132	     -1.11990801	      0.91413035	      0.80875102	      0.68148397	     36.55494767	     -1.43633844	      2.41213286	     55.20544580	      0.96351679	      9.61725773	    -13.77139267	     -7.49999987	     17.90608012	      4.19196546	      1.53575987	     13.86136284	      0.24192642	     10.50640385	     -5.29409501	     -7.49999987	     13.47902345	     -0.66526035	     -4.62671908	     -4.00067015	    -11.62019196	      4.65617657	     12.05319704	     97.41398381	      5.10178164	    -11.64966140	     10.57973659	     14.18381373	     92.68279298
     45.23333330	    -12.20306660	      1.18792448	     -1.16221789	      0.91472296	      0.80755914	      0.68102176	     37.28875323	     -1.11462728	      2.20528033	     50.79550577	      0.88654882	      9.76554883	    -13.41375583	     -7.49999987	     16.80749384	      3.90081743	      1.55413851	     13.44932952	      0.23473508	     11.26748814	     -4.49286049	     -7.49999987	     13.74948718	     -0.17030564	     -5.21452540	     -4.22782865	    -11.95023471	      4.49749165	     11.98946956	     97.42392051	      5.22845032	    -11.86472124	     10.55968777	     14.62341896	     92.65823109
     45.25000000	    -11.86142341	      1.07371370	     -1.25123253	      0.91458870	      0.80682963	      0.68110336	     37.30621155	     -0.94619793	      2.29121252	     46.16429725	      0.80571898	      9.35399330	    -13.41403058	     -7.49999987	     15.21364484	      3.75230996	      1.06551278	     13.03625837	      0.22752563	     12.44650333	     -2.88184691	     -7.49999987	     13.49242089	     -0.02670560	     -5.83115228	     -4.28830070	    -11.90566202	      4.18802908	     11.60138932	     97.97801069	      5.24696447	    -12.43463021	     10.24230314	     15.15422476	     92.82939807
     45.26666670	    -11.89030196	      0.94865657	     -1.36864237	      0.91292486	      0.80547022	      0.68150321	     37.55214568	     -0.79488709	      2.44799540	     41.26994439	      0.72029641	      8.56266181	    -13.32568778	     -7.49999987	     14.13423507	      3.59239206	      0.78038759	     12.69524852	      0.22157389	     13.21771033	     -1.93409008	     -7.49999987	     13.67750374	      0.18204040	     -6.15417017	     -4.62271245	    -12.04124814	      3.96009478	     11.48866704	     96.78209341	      5.33568083	    -12.69145144	      9.66552827	     15.42215000	     91.73219046
     45.28333330	    -12.03229434	      0.95263758	     -1.46616478	      0.90950001	      0.80382278	      0.68175998	     37.85254384	     -0.87212348	      2.61137957	     36.28180965	      0.63323704	      7.90216986	    -12.60166541	     -7.49999987	     13.30135426	      3.57743209	      0.72281320	     12.43826106	      0.21708861	     13.88016466	     -1.74044840	     -7.49999987	     14.01858709	      0.21561639	     -6.34863939	     -5.08735821	    -12.18458591	      3.93827796	     11.44059029	     96.88461017	      5.39762007	    -13.09074333	      9.65842003	     15.87369005	     91.77396882
